**ABCDEFGHIJKLMNOPQRSTUVWXYZabcdefghijklmnopqrstuvwxyz**************************
**PARASOLID !"#$%&'()*+,-./:;<=>?@[\]^_`{|}~0123456789**************************
**PART1;
MC=unknown;
MC_MODEL=unknown;
MC_ID=unknown;
OS=unknown;
OS_RELEASE=unknown;
FRU=sdl_parasolid_customer_support;
APPL=parasolid_acceptance_tests;
SITE=unknown;
USER=unknown;
FORMAT=text;
GUISE=transmit;
KEY=wall;
FILE=wall.xmt_txt;
DATE=unknown;
**PART2;
SCH=SCH_3000167_30000;
USFLD_SIZE=1;
**PART3;
**END_OF_HEADER*****************************************************************
T51 : TRANSMIT FILE created by modeller version 300016723 SCH_3000167_30000_1300
6205 1 12 33 CCCCCCI4 mesh1006 0 I8 polyline1008 0 CCCCCCCDI5 owner1040 0 CCCCCC
I13 boundary_mesh1006 0 I17 boundary_polyline1008 0 CCCA16 index_map_offset0 0 1
 dA9 index_map82 0 A17 node_id_index_map82 0 A20 schema_embedding_map82 0 A5 chi
ld12 0 A14 lowest_node_id0 0 1 dZ1 54 0 0 0 0 0 0 0 0 1e3 1e-8 0 2 3 1 0 1 1 4 5
 6 0 0 0 7 8 0 0 0 0 0 0 0 0 13 255 4 3 0 1 0 9 0 0 10 0 0 51 255 5 18 0 11 12 0
 0 +0 0 -1 0 0 1 2 1 0 0 0 31 255 6 22 0 13 14 0 0 +0 0 -1 0 0 -1 -1 0 0 1 0 19
 8 CCCCCCCA5 owner12 0 Z7 1 0 1 10 0 15 V0 0 16 255 8 12 0 ?16 0 17 14 0 0 1 0 1
7 255 16 0 18 16 16 0 19 8 0 0 +0 16 17 6 0 ?20 8 21 22 0 0 1 0 31 14 16 0 8 22
 6 0 +0 0 1 0 0 -1 1 0 0 2 0 31 22 10 0 17 23 14 0 +0 0 -1 0 0 1 1 0 0 2 0 31 23
 51 0 21 0 22 0 +0 0 1 0 0 1 1 0 0 1 0 16 21 30 0 ?24 17 13 23 0 0 1 0 17 24 0 2
5 24 24 0 26 21 0 0 +0 16 13 32 0 ?27 21 0 6 0 0 1 0 17 27 0 28 27 27 0 29 13 0
 0 +0 15 255 28 45 0 27 30 0 0 17 29 0 31 29 29 0 27 13 0 0 -0 15 31 21 0 29 32
 33 0 14 255 32 9 0 ?11 9 31 4 34 +0 0 11 9 15 0 15 33 8 0 35 32 0 0 17 35 0 33
 35 35 0 20 17 0 0 -0 17 20 0 36 20 20 0 35 17 0 0 +0 15 36 7 0 20 11 0 0 14 11
 2 0 ?30 32 18 4 5 +0 0 30 32 15 0 14 30 43 0 ?0 11 25 4 37 -0 0 0 11 15 0 15 18
 13 0 16 11 36 0 13 15 4 0 0 0 0 0 0 7 9 0 14 9 15 0 ?32 0 38 4 12 +0 0 32 0 15
 0 15 38 26 0 26 9 39 0 50 255 12 17 0 9 34 5 0 +0 0 1 0 0 1 1 0 0 0 50 34 11 0
 32 37 12 0 +0 0 -1 0 0 -1 -1 0 0 0 51 37 48 0 30 0 34 0 +0 0 -2.5 0 0 1 1 1 0 0
 0 17 26 0 38 26 26 0 24 21 0 0 -0 15 39 14 0 19 9 0 0 17 19 0 39 19 19 0 16 8 0
 0 -0 15 25 44 0 24 30 28 0 19 10 5 0 1 0 7 4 S0 0 1 0 
