solid ascii
 facet normal 0.998027 -0.0627905 -1.39423e-17
  outer loop
   vertex 1.5 1.11022e-15 -5
   vertex 1.5 -1.11022e-15 5
   vertex 1.48817 -0.188 -5
  endloop
 endfacet
 facet normal 0.998027 -0.0627905 0
  outer loop
   vertex 1.48817 -0.188 5
   vertex 1.48817 -0.188 -5
   vertex 1.5 -1.11022e-15 5
  endloop
 endfacet
 facet normal 0.982287 -0.187381 0
  outer loop
   vertex 1.48817 -0.188 -5
   vertex 1.48817 -0.188 5
   vertex 1.45287 -0.373035 -5
  endloop
 endfacet
 facet normal 0.982287 -0.187381 0
  outer loop
   vertex 1.45287 -0.373035 5
   vertex 1.45287 -0.373035 -5
   vertex 1.48817 -0.188 5
  endloop
 endfacet
 facet normal 0.951057 -0.309017 0
  outer loop
   vertex 1.45287 -0.373035 -5
   vertex 1.45287 -0.373035 5
   vertex 1.39466 -0.552187 -5
  endloop
 endfacet
 facet normal 0.951057 -0.309017 0
  outer loop
   vertex 1.39466 -0.552187 5
   vertex 1.39466 -0.552187 -5
   vertex 1.45287 -0.373035 5
  endloop
 endfacet
 facet normal 0.904827 -0.425779 0
  outer loop
   vertex 1.39466 -0.552187 -5
   vertex 1.39466 -0.552187 5
   vertex 1.31446 -0.722631 -5
  endloop
 endfacet
 facet normal 0.904827 -0.425779 0
  outer loop
   vertex 1.31446 -0.722631 5
   vertex 1.31446 -0.722631 -5
   vertex 1.39466 -0.552187 5
  endloop
 endfacet
 facet normal 0.844328 -0.535827 0
  outer loop
   vertex 1.31446 -0.722631 -5
   vertex 1.31446 -0.722631 5
   vertex 1.21353 -0.881678 -5
  endloop
 endfacet
 facet normal 0.844328 -0.535827 0
  outer loop
   vertex 1.21353 -0.881678 5
   vertex 1.21353 -0.881678 -5
   vertex 1.31446 -0.722631 5
  endloop
 endfacet
 facet normal 0.770513 -0.637424 0
  outer loop
   vertex 1.21353 -0.881678 -5
   vertex 1.21353 -0.881678 5
   vertex 1.09345 -1.02682 -5
  endloop
 endfacet
 facet normal 0.770513 -0.637424 0
  outer loop
   vertex 1.09345 -1.02682 5
   vertex 1.09345 -1.02682 -5
   vertex 1.21353 -0.881678 5
  endloop
 endfacet
 facet normal 0.684547 -0.728969 0
  outer loop
   vertex 1.09345 -1.02682 -5
   vertex 1.09345 -1.02682 5
   vertex 0.956136 -1.15577 -5
  endloop
 endfacet
 facet normal 0.684547 -0.728969 0
  outer loop
   vertex 0.956136 -1.15577 5
   vertex 0.956136 -1.15577 -5
   vertex 1.09345 -1.02682 5
  endloop
 endfacet
 facet normal 0.587785 -0.809017 0
  outer loop
   vertex 0.956136 -1.15577 -5
   vertex 0.956136 -1.15577 5
   vertex 0.80374 -1.26649 -5
  endloop
 endfacet
 facet normal 0.587785 -0.809017 0
  outer loop
   vertex 0.80374 -1.26649 5
   vertex 0.80374 -1.26649 -5
   vertex 0.956136 -1.15577 5
  endloop
 endfacet
 facet normal 0.481754 -0.876307 0
  outer loop
   vertex 0.80374 -1.26649 -5
   vertex 0.80374 -1.26649 5
   vertex 0.638669 -1.35724 -5
  endloop
 endfacet
 facet normal 0.481754 -0.876307 0
  outer loop
   vertex 0.638669 -1.35724 5
   vertex 0.638669 -1.35724 -5
   vertex 0.80374 -1.26649 5
  endloop
 endfacet
 facet normal 0.368124 -0.929777 0
  outer loop
   vertex 0.638669 -1.35724 -5
   vertex 0.638669 -1.35724 5
   vertex 0.463526 -1.42658 -5
  endloop
 endfacet
 facet normal 0.368124 -0.929777 0
  outer loop
   vertex 0.463526 -1.42658 5
   vertex 0.463526 -1.42658 -5
   vertex 0.638669 -1.35724 5
  endloop
 endfacet
 facet normal 0.24869 -0.968583 0
  outer loop
   vertex 0.463526 -1.42658 -5
   vertex 0.463526 -1.42658 5
   vertex 0.281072 -1.47343 -5
  endloop
 endfacet
 facet normal 0.24869 -0.968583 0
  outer loop
   vertex 0.281072 -1.47343 5
   vertex 0.281072 -1.47343 -5
   vertex 0.463526 -1.42658 5
  endloop
 endfacet
 facet normal 0.125333 -0.992115 0
  outer loop
   vertex 0.281072 -1.47343 -5
   vertex 0.281072 -1.47343 5
   vertex 0.0941858 -1.49704 -5
  endloop
 endfacet
 facet normal 0.125333 -0.992115 0
  outer loop
   vertex 0.0941858 -1.49704 -5
   vertex 0.281072 -1.47343 5
   vertex 0.0941858 -1.49704 5
  endloop
 endfacet
 facet normal 0 -1 -0
  outer loop
   vertex 0.0941858 -1.49704 -5
   vertex 0.0941858 -1.49704 5
   vertex -0.0941858 -1.49704 -5
  endloop
 endfacet
 facet normal 0 -1 0
  outer loop
   vertex -0.0941858 -1.49704 5
   vertex -0.0941858 -1.49704 -5
   vertex 0.0941858 -1.49704 5
  endloop
 endfacet
 facet normal -0.125333 -0.992115 -0
  outer loop
   vertex -0.0941858 -1.49704 -5
   vertex -0.0941858 -1.49704 5
   vertex -0.281072 -1.47343 -5
  endloop
 endfacet
 facet normal -0.125333 -0.992115 0
  outer loop
   vertex -0.281072 -1.47343 -5
   vertex -0.0941858 -1.49704 5
   vertex -0.281072 -1.47343 5
  endloop
 endfacet
 facet normal -0.24869 -0.968583 -0
  outer loop
   vertex -0.281072 -1.47343 -5
   vertex -0.281072 -1.47343 5
   vertex -0.463526 -1.42658 -5
  endloop
 endfacet
 facet normal -0.24869 -0.968583 0
  outer loop
   vertex -0.463526 -1.42658 5
   vertex -0.463526 -1.42658 -5
   vertex -0.281072 -1.47343 5
  endloop
 endfacet
 facet normal -0.368124 -0.929777 -0
  outer loop
   vertex -0.463526 -1.42658 -5
   vertex -0.463526 -1.42658 5
   vertex -0.638669 -1.35724 -5
  endloop
 endfacet
 facet normal -0.368124 -0.929777 0
  outer loop
   vertex -0.638669 -1.35724 5
   vertex -0.638669 -1.35724 -5
   vertex -0.463526 -1.42658 5
  endloop
 endfacet
 facet normal -0.481754 -0.876307 -0
  outer loop
   vertex -0.638669 -1.35724 -5
   vertex -0.638669 -1.35724 5
   vertex -0.80374 -1.26649 -5
  endloop
 endfacet
 facet normal -0.481754 -0.876307 0
  outer loop
   vertex -0.80374 -1.26649 5
   vertex -0.80374 -1.26649 -5
   vertex -0.638669 -1.35724 5
  endloop
 endfacet
 facet normal -0.587785 -0.809017 -0
  outer loop
   vertex -0.80374 -1.26649 -5
   vertex -0.80374 -1.26649 5
   vertex -0.956136 -1.15577 -5
  endloop
 endfacet
 facet normal -0.587785 -0.809017 0
  outer loop
   vertex -0.956136 -1.15577 5
   vertex -0.956136 -1.15577 -5
   vertex -0.80374 -1.26649 5
  endloop
 endfacet
 facet normal -0.684547 -0.728969 -0
  outer loop
   vertex -0.956136 -1.15577 -5
   vertex -0.956136 -1.15577 5
   vertex -1.09345 -1.02682 -5
  endloop
 endfacet
 facet normal -0.684547 -0.728969 0
  outer loop
   vertex -1.09345 -1.02682 5
   vertex -1.09345 -1.02682 -5
   vertex -0.956136 -1.15577 5
  endloop
 endfacet
 facet normal -0.770513 -0.637424 -0
  outer loop
   vertex -1.09345 -1.02682 -5
   vertex -1.09345 -1.02682 5
   vertex -1.21353 -0.881678 -5
  endloop
 endfacet
 facet normal -0.770513 -0.637424 0
  outer loop
   vertex -1.21353 -0.881678 5
   vertex -1.21353 -0.881678 -5
   vertex -1.09345 -1.02682 5
  endloop
 endfacet
 facet normal -0.844328 -0.535827 -0
  outer loop
   vertex -1.21353 -0.881678 -5
   vertex -1.21353 -0.881678 5
   vertex -1.31446 -0.722631 -5
  endloop
 endfacet
 facet normal -0.844328 -0.535827 0
  outer loop
   vertex -1.31446 -0.722631 5
   vertex -1.31446 -0.722631 -5
   vertex -1.21353 -0.881678 5
  endloop
 endfacet
 facet normal -0.904827 -0.425779 -0
  outer loop
   vertex -1.31446 -0.722631 -5
   vertex -1.31446 -0.722631 5
   vertex -1.39466 -0.552187 -5
  endloop
 endfacet
 facet normal -0.904827 -0.425779 0
  outer loop
   vertex -1.39466 -0.552187 5
   vertex -1.39466 -0.552187 -5
   vertex -1.31446 -0.722631 5
  endloop
 endfacet
 facet normal -0.951057 -0.309017 -0
  outer loop
   vertex -1.39466 -0.552187 -5
   vertex -1.39466 -0.552187 5
   vertex -1.45287 -0.373035 -5
  endloop
 endfacet
 facet normal -0.951057 -0.309017 0
  outer loop
   vertex -1.45287 -0.373035 5
   vertex -1.45287 -0.373035 -5
   vertex -1.39466 -0.552187 5
  endloop
 endfacet
 facet normal -0.982287 -0.187381 -0
  outer loop
   vertex -1.45287 -0.373035 -5
   vertex -1.45287 -0.373035 5
   vertex -1.48817 -0.188 -5
  endloop
 endfacet
 facet normal -0.982287 -0.187381 0
  outer loop
   vertex -1.48817 -0.188 5
   vertex -1.48817 -0.188 -5
   vertex -1.45287 -0.373035 5
  endloop
 endfacet
 facet normal -0.998027 -0.0627905 -0
  outer loop
   vertex -1.48817 -0.188 -5
   vertex -1.48817 -0.188 5
   vertex -1.5 1.59266e-15 -5
  endloop
 endfacet
 facet normal -0.998027 -0.0627905 -1.39423e-17
  outer loop
   vertex -1.5 -6.27786e-16 5
   vertex -1.5 1.59266e-15 -5
   vertex -1.48817 -0.188 5
  endloop
 endfacet
 facet normal -0.998027 0.0627905 1.38136e-17
  outer loop
   vertex -1.5 -6.27786e-16 5
   vertex -1.48817 0.188 5
   vertex -1.5 1.59266e-15 -5
  endloop
 endfacet
 facet normal -0.998027 0.0627905 0
  outer loop
   vertex -1.48817 0.188 5
   vertex -1.48817 0.188 -5
   vertex -1.5 1.59266e-15 -5
  endloop
 endfacet
 facet normal -0.982287 0.187381 0
  outer loop
   vertex -1.48817 0.188 -5
   vertex -1.48817 0.188 5
   vertex -1.45287 0.373035 -5
  endloop
 endfacet
 facet normal -0.982287 0.187381 0
  outer loop
   vertex -1.45287 0.373035 5
   vertex -1.45287 0.373035 -5
   vertex -1.48817 0.188 5
  endloop
 endfacet
 facet normal -0.951057 0.309017 0
  outer loop
   vertex -1.45287 0.373035 -5
   vertex -1.45287 0.373035 5
   vertex -1.39466 0.552187 -5
  endloop
 endfacet
 facet normal -0.951057 0.309017 0
  outer loop
   vertex -1.39466 0.552187 5
   vertex -1.39466 0.552187 -5
   vertex -1.45287 0.373035 5
  endloop
 endfacet
 facet normal -0.904827 0.425779 0
  outer loop
   vertex -1.39466 0.552187 -5
   vertex -1.39466 0.552187 5
   vertex -1.31446 0.722631 -5
  endloop
 endfacet
 facet normal -0.904827 0.425779 0
  outer loop
   vertex -1.31446 0.722631 5
   vertex -1.31446 0.722631 -5
   vertex -1.39466 0.552187 5
  endloop
 endfacet
 facet normal -0.844328 0.535827 0
  outer loop
   vertex -1.31446 0.722631 -5
   vertex -1.31446 0.722631 5
   vertex -1.21353 0.881678 -5
  endloop
 endfacet
 facet normal -0.844328 0.535827 0
  outer loop
   vertex -1.21353 0.881678 5
   vertex -1.21353 0.881678 -5
   vertex -1.31446 0.722631 5
  endloop
 endfacet
 facet normal -0.770513 0.637424 0
  outer loop
   vertex -1.21353 0.881678 -5
   vertex -1.21353 0.881678 5
   vertex -1.09345 1.02682 -5
  endloop
 endfacet
 facet normal -0.770513 0.637424 0
  outer loop
   vertex -1.09345 1.02682 5
   vertex -1.09345 1.02682 -5
   vertex -1.21353 0.881678 5
  endloop
 endfacet
 facet normal -0.684547 0.728969 0
  outer loop
   vertex -1.09345 1.02682 -5
   vertex -1.09345 1.02682 5
   vertex -0.956136 1.15577 -5
  endloop
 endfacet
 facet normal -0.684547 0.728969 0
  outer loop
   vertex -0.956136 1.15577 5
   vertex -0.956136 1.15577 -5
   vertex -1.09345 1.02682 5
  endloop
 endfacet
 facet normal -0.587785 0.809017 0
  outer loop
   vertex -0.956136 1.15577 -5
   vertex -0.956136 1.15577 5
   vertex -0.80374 1.26649 -5
  endloop
 endfacet
 facet normal -0.587785 0.809017 0
  outer loop
   vertex -0.80374 1.26649 5
   vertex -0.80374 1.26649 -5
   vertex -0.956136 1.15577 5
  endloop
 endfacet
 facet normal -0.481754 0.876307 0
  outer loop
   vertex -0.80374 1.26649 -5
   vertex -0.80374 1.26649 5
   vertex -0.638669 1.35724 -5
  endloop
 endfacet
 facet normal -0.481754 0.876307 0
  outer loop
   vertex -0.638669 1.35724 5
   vertex -0.638669 1.35724 -5
   vertex -0.80374 1.26649 5
  endloop
 endfacet
 facet normal -0.368124 0.929777 0
  outer loop
   vertex -0.638669 1.35724 -5
   vertex -0.638669 1.35724 5
   vertex -0.463526 1.42658 -5
  endloop
 endfacet
 facet normal -0.368124 0.929777 0
  outer loop
   vertex -0.463526 1.42658 5
   vertex -0.463526 1.42658 -5
   vertex -0.638669 1.35724 5
  endloop
 endfacet
 facet normal -0.24869 0.968583 0
  outer loop
   vertex -0.463526 1.42658 -5
   vertex -0.463526 1.42658 5
   vertex -0.281072 1.47343 -5
  endloop
 endfacet
 facet normal -0.24869 0.968583 0
  outer loop
   vertex -0.281072 1.47343 5
   vertex -0.281072 1.47343 -5
   vertex -0.463526 1.42658 5
  endloop
 endfacet
 facet normal -0.125333 0.992115 0
  outer loop
   vertex -0.281072 1.47343 -5
   vertex -0.281072 1.47343 5
   vertex -0.0941858 1.49704 -5
  endloop
 endfacet
 facet normal -0.125333 0.992115 0
  outer loop
   vertex -0.0941858 1.49704 -5
   vertex -0.281072 1.47343 5
   vertex -0.0941858 1.49704 5
  endloop
 endfacet
 facet normal 0 1 0
  outer loop
   vertex -0.0941858 1.49704 -5
   vertex -0.0941858 1.49704 5
   vertex 0.0941858 1.49704 -5
  endloop
 endfacet
 facet normal 0 1 -0
  outer loop
   vertex 0.0941858 1.49704 5
   vertex 0.0941858 1.49704 -5
   vertex -0.0941858 1.49704 5
  endloop
 endfacet
 facet normal 0.125333 0.992115 0
  outer loop
   vertex 0.0941858 1.49704 -5
   vertex 0.0941858 1.49704 5
   vertex 0.281072 1.47343 -5
  endloop
 endfacet
 facet normal 0.125333 0.992115 0
  outer loop
   vertex 0.281072 1.47343 -5
   vertex 0.0941858 1.49704 5
   vertex 0.281072 1.47343 5
  endloop
 endfacet
 facet normal 0.24869 0.968583 0
  outer loop
   vertex 0.281072 1.47343 -5
   vertex 0.281072 1.47343 5
   vertex 0.463526 1.42658 -5
  endloop
 endfacet
 facet normal 0.24869 0.968583 -0
  outer loop
   vertex 0.463526 1.42658 5
   vertex 0.463526 1.42658 -5
   vertex 0.281072 1.47343 5
  endloop
 endfacet
 facet normal 0.368124 0.929777 0
  outer loop
   vertex 0.463526 1.42658 -5
   vertex 0.463526 1.42658 5
   vertex 0.638669 1.35724 -5
  endloop
 endfacet
 facet normal 0.368124 0.929777 -0
  outer loop
   vertex 0.638669 1.35724 5
   vertex 0.638669 1.35724 -5
   vertex 0.463526 1.42658 5
  endloop
 endfacet
 facet normal 0.481754 0.876307 0
  outer loop
   vertex 0.638669 1.35724 -5
   vertex 0.638669 1.35724 5
   vertex 0.80374 1.26649 -5
  endloop
 endfacet
 facet normal 0.481754 0.876307 -0
  outer loop
   vertex 0.80374 1.26649 5
   vertex 0.80374 1.26649 -5
   vertex 0.638669 1.35724 5
  endloop
 endfacet
 facet normal 0.587785 0.809017 0
  outer loop
   vertex 0.80374 1.26649 -5
   vertex 0.80374 1.26649 5
   vertex 0.956136 1.15577 -5
  endloop
 endfacet
 facet normal 0.587785 0.809017 -0
  outer loop
   vertex 0.956136 1.15577 5
   vertex 0.956136 1.15577 -5
   vertex 0.80374 1.26649 5
  endloop
 endfacet
 facet normal 0.684547 0.728969 0
  outer loop
   vertex 0.956136 1.15577 -5
   vertex 0.956136 1.15577 5
   vertex 1.09345 1.02682 -5
  endloop
 endfacet
 facet normal 0.684547 0.728969 -0
  outer loop
   vertex 1.09345 1.02682 5
   vertex 1.09345 1.02682 -5
   vertex 0.956136 1.15577 5
  endloop
 endfacet
 facet normal 0.770513 0.637424 0
  outer loop
   vertex 1.09345 1.02682 -5
   vertex 1.09345 1.02682 5
   vertex 1.21353 0.881678 -5
  endloop
 endfacet
 facet normal 0.770513 0.637424 -0
  outer loop
   vertex 1.21353 0.881678 5
   vertex 1.21353 0.881678 -5
   vertex 1.09345 1.02682 5
  endloop
 endfacet
 facet normal 0.844328 0.535827 0
  outer loop
   vertex 1.21353 0.881678 -5
   vertex 1.21353 0.881678 5
   vertex 1.31446 0.722631 -5
  endloop
 endfacet
 facet normal 0.844328 0.535827 -0
  outer loop
   vertex 1.31446 0.722631 5
   vertex 1.31446 0.722631 -5
   vertex 1.21353 0.881678 5
  endloop
 endfacet
 facet normal 0.904827 0.425779 0
  outer loop
   vertex 1.31446 0.722631 -5
   vertex 1.31446 0.722631 5
   vertex 1.39466 0.552187 -5
  endloop
 endfacet
 facet normal 0.904827 0.425779 -0
  outer loop
   vertex 1.39466 0.552187 5
   vertex 1.39466 0.552187 -5
   vertex 1.31446 0.722631 5
  endloop
 endfacet
 facet normal 0.951057 0.309017 0
  outer loop
   vertex 1.39466 0.552187 -5
   vertex 1.39466 0.552187 5
   vertex 1.45287 0.373035 -5
  endloop
 endfacet
 facet normal 0.951057 0.309017 -0
  outer loop
   vertex 1.45287 0.373035 5
   vertex 1.45287 0.373035 -5
   vertex 1.39466 0.552187 5
  endloop
 endfacet
 facet normal 0.982287 0.187381 0
  outer loop
   vertex 1.45287 0.373035 -5
   vertex 1.45287 0.373035 5
   vertex 1.48817 0.188 -5
  endloop
 endfacet
 facet normal 0.982287 0.187381 -0
  outer loop
   vertex 1.48817 0.188 5
   vertex 1.48817 0.188 -5
   vertex 1.45287 0.373035 5
  endloop
 endfacet
 facet normal 0.998027 0.0627905 0
  outer loop
   vertex 1.48817 0.188 5
   vertex 1.5 -1.11022e-15 5
   vertex 1.48817 0.188 -5
  endloop
 endfacet
 facet normal 0.998027 0.0627905 1.38136e-17
  outer loop
   vertex 1.5 1.11022e-15 -5
   vertex 1.48817 0.188 -5
   vertex 1.5 -1.11022e-15 5
  endloop
 endfacet
 facet normal 0 0 -1
  outer loop
   vertex 0.281072 -1.47343 -5
   vertex 0.0941858 -1.49704 -5
   vertex 0.463526 -1.42658 -5
  endloop
 endfacet
 facet normal 0 0 -1
  outer loop
   vertex 0.0941858 -1.49704 -5
   vertex -0.0941858 -1.49704 -5
   vertex 0.463526 -1.42658 -5
  endloop
 endfacet
 facet normal 0 0 -1
  outer loop
   vertex 0.463526 -1.42658 -5
   vertex -0.0941858 -1.49704 -5
   vertex 0.638669 -1.35724 -5
  endloop
 endfacet
 facet normal 0 0 -1
  outer loop
   vertex 0.638669 -1.35724 -5
   vertex -0.0941858 -1.49704 -5
   vertex 0.80374 -1.26649 -5
  endloop
 endfacet
 facet normal 0 0 -1
  outer loop
   vertex 0.80374 -1.26649 -5
   vertex -0.0941858 -1.49704 -5
   vertex 0.956136 -1.15577 -5
  endloop
 endfacet
 facet normal 0 0 -1
  outer loop
   vertex 0.956136 -1.15577 -5
   vertex -0.0941858 -1.49704 -5
   vertex 1.09345 -1.02682 -5
  endloop
 endfacet
 facet normal 0 0 -1
  outer loop
   vertex 1.09345 -1.02682 -5
   vertex -0.0941858 -1.49704 -5
   vertex 1.21353 -0.881678 -5
  endloop
 endfacet
 facet normal 0 0 -1
  outer loop
   vertex 1.21353 -0.881678 -5
   vertex -0.0941858 -1.49704 -5
   vertex 1.31446 -0.722631 -5
  endloop
 endfacet
 facet normal 0 0 -1
  outer loop
   vertex 1.31446 -0.722631 -5
   vertex -0.0941858 -1.49704 -5
   vertex 1.39466 -0.552187 -5
  endloop
 endfacet
 facet normal 0 0 -1
  outer loop
   vertex 1.39466 -0.552187 -5
   vertex -0.0941858 -1.49704 -5
   vertex 1.45287 -0.373035 -5
  endloop
 endfacet
 facet normal 0 0 -1
  outer loop
   vertex 1.45287 -0.373035 -5
   vertex -0.0941858 -1.49704 -5
   vertex 1.48817 -0.188 -5
  endloop
 endfacet
 facet normal 0 0 -1
  outer loop
   vertex 1.48817 -0.188 -5
   vertex -0.0941858 -1.49704 -5
   vertex 1.5 1.11022e-15 -5
  endloop
 endfacet
 facet normal 0 0 -1
  outer loop
   vertex 1.5 1.11022e-15 -5
   vertex -0.0941858 -1.49704 -5
   vertex 1.48817 0.188 -5
  endloop
 endfacet
 facet normal 0 0 -1
  outer loop
   vertex 1.48817 0.188 -5
   vertex -0.0941858 -1.49704 -5
   vertex 1.45287 0.373035 -5
  endloop
 endfacet
 facet normal 0 0 -1
  outer loop
   vertex 1.45287 0.373035 -5
   vertex -0.0941858 -1.49704 -5
   vertex 1.39466 0.552187 -5
  endloop
 endfacet
 facet normal 0 0 -1
  outer loop
   vertex 1.39466 0.552187 -5
   vertex -0.0941858 -1.49704 -5
   vertex 1.31446 0.722631 -5
  endloop
 endfacet
 facet normal 0 0 -1
  outer loop
   vertex 1.31446 0.722631 -5
   vertex -0.0941858 -1.49704 -5
   vertex 1.21353 0.881678 -5
  endloop
 endfacet
 facet normal 0 0 -1
  outer loop
   vertex 1.21353 0.881678 -5
   vertex -0.0941858 -1.49704 -5
   vertex 1.09345 1.02682 -5
  endloop
 endfacet
 facet normal 0 0 -1
  outer loop
   vertex 1.09345 1.02682 -5
   vertex -0.0941858 -1.49704 -5
   vertex 0.956136 1.15577 -5
  endloop
 endfacet
 facet normal 0 0 -1
  outer loop
   vertex 0.956136 1.15577 -5
   vertex -0.0941858 -1.49704 -5
   vertex 0.80374 1.26649 -5
  endloop
 endfacet
 facet normal 0 0 -1
  outer loop
   vertex 0.80374 1.26649 -5
   vertex -0.0941858 -1.49704 -5
   vertex 0.638669 1.35724 -5
  endloop
 endfacet
 facet normal 0 0 -1
  outer loop
   vertex 0.638669 1.35724 -5
   vertex -0.0941858 -1.49704 -5
   vertex 0.463526 1.42658 -5
  endloop
 endfacet
 facet normal 0 0 -1
  outer loop
   vertex 0.463526 1.42658 -5
   vertex -0.0941858 -1.49704 -5
   vertex 0.281072 1.47343 -5
  endloop
 endfacet
 facet normal 0 0 -1
  outer loop
   vertex 0.281072 1.47343 -5
   vertex -0.0941858 -1.49704 -5
   vertex 0.0941858 1.49704 -5
  endloop
 endfacet
 facet normal 0 0 -1
  outer loop
   vertex 0.0941858 1.49704 -5
   vertex -0.0941858 -1.49704 -5
   vertex -0.0941858 1.49704 -5
  endloop
 endfacet
 facet normal 0 0 -1
  outer loop
   vertex -0.0941858 1.49704 -5
   vertex -0.0941858 -1.49704 -5
   vertex -0.281072 1.47343 -5
  endloop
 endfacet
 facet normal 0 0 -1
  outer loop
   vertex -0.281072 1.47343 -5
   vertex -0.0941858 -1.49704 -5
   vertex -0.463526 1.42658 -5
  endloop
 endfacet
 facet normal 0 0 -1
  outer loop
   vertex -0.463526 1.42658 -5
   vertex -0.0941858 -1.49704 -5
   vertex -0.638669 1.35724 -5
  endloop
 endfacet
 facet normal 0 0 -1
  outer loop
   vertex -0.0941858 -1.49704 -5
   vertex -0.281072 -1.47343 -5
   vertex -0.638669 1.35724 -5
  endloop
 endfacet
 facet normal 0 0 -1
  outer loop
   vertex -0.281072 -1.47343 -5
   vertex -0.463526 -1.42658 -5
   vertex -0.638669 1.35724 -5
  endloop
 endfacet
 facet normal 0 0 -1
  outer loop
   vertex -0.463526 -1.42658 -5
   vertex -0.638669 -1.35724 -5
   vertex -0.638669 1.35724 -5
  endloop
 endfacet
 facet normal 0 0 -1
  outer loop
   vertex -0.638669 1.35724 -5
   vertex -0.638669 -1.35724 -5
   vertex -0.80374 1.26649 -5
  endloop
 endfacet
 facet normal 0 0 -1
  outer loop
   vertex -0.80374 1.26649 -5
   vertex -0.638669 -1.35724 -5
   vertex -0.956136 1.15577 -5
  endloop
 endfacet
 facet normal 0 0 -1
  outer loop
   vertex -0.638669 -1.35724 -5
   vertex -0.80374 -1.26649 -5
   vertex -0.956136 1.15577 -5
  endloop
 endfacet
 facet normal 0 0 -1
  outer loop
   vertex -0.80374 -1.26649 -5
   vertex -0.956136 -1.15577 -5
   vertex -0.956136 1.15577 -5
  endloop
 endfacet
 facet normal 0 0 -1
  outer loop
   vertex -0.956136 1.15577 -5
   vertex -0.956136 -1.15577 -5
   vertex -1.09345 1.02682 -5
  endloop
 endfacet
 facet normal 0 0 -1
  outer loop
   vertex -1.09345 1.02682 -5
   vertex -0.956136 -1.15577 -5
   vertex -1.21353 0.881678 -5
  endloop
 endfacet
 facet normal 0 0 -1
  outer loop
   vertex -0.956136 -1.15577 -5
   vertex -1.09345 -1.02682 -5
   vertex -1.21353 0.881678 -5
  endloop
 endfacet
 facet normal 0 0 -1
  outer loop
   vertex -1.09345 -1.02682 -5
   vertex -1.21353 -0.881678 -5
   vertex -1.21353 0.881678 -5
  endloop
 endfacet
 facet normal 0 0 -1
  outer loop
   vertex -1.21353 0.881678 -5
   vertex -1.21353 -0.881678 -5
   vertex -1.31446 0.722631 -5
  endloop
 endfacet
 facet normal 0 0 -1
  outer loop
   vertex -1.31446 0.722631 -5
   vertex -1.21353 -0.881678 -5
   vertex -1.39466 0.552187 -5
  endloop
 endfacet
 facet normal 0 0 -1
  outer loop
   vertex -1.39466 0.552187 -5
   vertex -1.21353 -0.881678 -5
   vertex -1.45287 0.373035 -5
  endloop
 endfacet
 facet normal 0 0 -1
  outer loop
   vertex -1.21353 -0.881678 -5
   vertex -1.31446 -0.722631 -5
   vertex -1.45287 0.373035 -5
  endloop
 endfacet
 facet normal 0 0 -1
  outer loop
   vertex -1.31446 -0.722631 -5
   vertex -1.39466 -0.552187 -5
   vertex -1.45287 0.373035 -5
  endloop
 endfacet
 facet normal 0 0 -1
  outer loop
   vertex -1.39466 -0.552187 -5
   vertex -1.45287 -0.373035 -5
   vertex -1.45287 0.373035 -5
  endloop
 endfacet
 facet normal 0 0 -1
  outer loop
   vertex -1.45287 0.373035 -5
   vertex -1.45287 -0.373035 -5
   vertex -1.48817 0.188 -5
  endloop
 endfacet
 facet normal 0 0 -1
  outer loop
   vertex -1.48817 0.188 -5
   vertex -1.45287 -0.373035 -5
   vertex -1.5 1.59266e-15 -5
  endloop
 endfacet
 facet normal 0 0 -1
  outer loop
   vertex -1.45287 -0.373035 -5
   vertex -1.48817 -0.188 -5
   vertex -1.5 1.59266e-15 -5
  endloop
 endfacet
 facet normal 0 0 1
  outer loop
   vertex 0.281072 1.47343 5
   vertex 0.0941858 1.49704 5
   vertex 0.463526 1.42658 5
  endloop
 endfacet
 facet normal -0 0 1
  outer loop
   vertex 0.0941858 1.49704 5
   vertex -0.0941858 1.49704 5
   vertex 0.463526 1.42658 5
  endloop
 endfacet
 facet normal 0 0 1
  outer loop
   vertex 0.463526 1.42658 5
   vertex -0.0941858 1.49704 5
   vertex 0.638669 1.35724 5
  endloop
 endfacet
 facet normal 0 0 1
  outer loop
   vertex 0.638669 1.35724 5
   vertex -0.0941858 1.49704 5
   vertex 0.80374 1.26649 5
  endloop
 endfacet
 facet normal 0 0 1
  outer loop
   vertex 0.80374 1.26649 5
   vertex -0.0941858 1.49704 5
   vertex 0.956136 1.15577 5
  endloop
 endfacet
 facet normal 0 0 1
  outer loop
   vertex 0.956136 1.15577 5
   vertex -0.0941858 1.49704 5
   vertex 1.09345 1.02682 5
  endloop
 endfacet
 facet normal 0 0 1
  outer loop
   vertex 1.09345 1.02682 5
   vertex -0.0941858 1.49704 5
   vertex 1.21353 0.881678 5
  endloop
 endfacet
 facet normal 0 0 1
  outer loop
   vertex 1.21353 0.881678 5
   vertex -0.0941858 1.49704 5
   vertex 1.31446 0.722631 5
  endloop
 endfacet
 facet normal 0 0 1
  outer loop
   vertex 1.31446 0.722631 5
   vertex -0.0941858 1.49704 5
   vertex 1.39466 0.552187 5
  endloop
 endfacet
 facet normal 0 0 1
  outer loop
   vertex 1.39466 0.552187 5
   vertex -0.0941858 1.49704 5
   vertex 1.45287 0.373035 5
  endloop
 endfacet
 facet normal 0 0 1
  outer loop
   vertex 1.45287 0.373035 5
   vertex -0.0941858 1.49704 5
   vertex 1.48817 0.188 5
  endloop
 endfacet
 facet normal 0 0 1
  outer loop
   vertex 1.48817 0.188 5
   vertex -0.0941858 1.49704 5
   vertex 1.5 -1.11022e-15 5
  endloop
 endfacet
 facet normal 0 0 1
  outer loop
   vertex 1.5 -1.11022e-15 5
   vertex -0.0941858 1.49704 5
   vertex 1.48817 -0.188 5
  endloop
 endfacet
 facet normal 0 0 1
  outer loop
   vertex 1.48817 -0.188 5
   vertex -0.0941858 1.49704 5
   vertex 1.45287 -0.373035 5
  endloop
 endfacet
 facet normal 0 0 1
  outer loop
   vertex 1.45287 -0.373035 5
   vertex -0.0941858 1.49704 5
   vertex 1.39466 -0.552187 5
  endloop
 endfacet
 facet normal 0 0 1
  outer loop
   vertex 1.39466 -0.552187 5
   vertex -0.0941858 1.49704 5
   vertex 1.31446 -0.722631 5
  endloop
 endfacet
 facet normal 0 0 1
  outer loop
   vertex 1.31446 -0.722631 5
   vertex -0.0941858 1.49704 5
   vertex 1.21353 -0.881678 5
  endloop
 endfacet
 facet normal 0 0 1
  outer loop
   vertex 1.21353 -0.881678 5
   vertex -0.0941858 1.49704 5
   vertex 1.09345 -1.02682 5
  endloop
 endfacet
 facet normal 0 0 1
  outer loop
   vertex 1.09345 -1.02682 5
   vertex -0.0941858 1.49704 5
   vertex 0.956136 -1.15577 5
  endloop
 endfacet
 facet normal 0 0 1
  outer loop
   vertex 0.956136 -1.15577 5
   vertex -0.0941858 1.49704 5
   vertex 0.80374 -1.26649 5
  endloop
 endfacet
 facet normal 0 0 1
  outer loop
   vertex 0.80374 -1.26649 5
   vertex -0.0941858 1.49704 5
   vertex 0.638669 -1.35724 5
  endloop
 endfacet
 facet normal 0 0 1
  outer loop
   vertex 0.638669 -1.35724 5
   vertex -0.0941858 1.49704 5
   vertex 0.463526 -1.42658 5
  endloop
 endfacet
 facet normal 0 0 1
  outer loop
   vertex 0.463526 -1.42658 5
   vertex -0.0941858 1.49704 5
   vertex 0.281072 -1.47343 5
  endloop
 endfacet
 facet normal 0 0 1
  outer loop
   vertex 0.281072 -1.47343 5
   vertex -0.0941858 1.49704 5
   vertex 0.0941858 -1.49704 5
  endloop
 endfacet
 facet normal 0 0 1
  outer loop
   vertex 0.0941858 -1.49704 5
   vertex -0.0941858 1.49704 5
   vertex -0.0941858 -1.49704 5
  endloop
 endfacet
 facet normal 0 0 1
  outer loop
   vertex -0.0941858 -1.49704 5
   vertex -0.0941858 1.49704 5
   vertex -0.281072 -1.47343 5
  endloop
 endfacet
 facet normal 0 0 1
  outer loop
   vertex -0.281072 -1.47343 5
   vertex -0.0941858 1.49704 5
   vertex -0.463526 -1.42658 5
  endloop
 endfacet
 facet normal 0 0 1
  outer loop
   vertex -0.463526 -1.42658 5
   vertex -0.0941858 1.49704 5
   vertex -0.638669 -1.35724 5
  endloop
 endfacet
 facet normal -0 0 1
  outer loop
   vertex -0.0941858 1.49704 5
   vertex -0.281072 1.47343 5
   vertex -0.638669 -1.35724 5
  endloop
 endfacet
 facet normal -0 0 1
  outer loop
   vertex -0.281072 1.47343 5
   vertex -0.463526 1.42658 5
   vertex -0.638669 -1.35724 5
  endloop
 endfacet
 facet normal -0 0 1
  outer loop
   vertex -0.463526 1.42658 5
   vertex -0.638669 1.35724 5
   vertex -0.638669 -1.35724 5
  endloop
 endfacet
 facet normal 0 0 1
  outer loop
   vertex -0.638669 -1.35724 5
   vertex -0.638669 1.35724 5
   vertex -0.80374 -1.26649 5
  endloop
 endfacet
 facet normal 0 0 1
  outer loop
   vertex -0.80374 -1.26649 5
   vertex -0.638669 1.35724 5
   vertex -0.956136 -1.15577 5
  endloop
 endfacet
 facet normal -0 0 1
  outer loop
   vertex -0.638669 1.35724 5
   vertex -0.80374 1.26649 5
   vertex -0.956136 -1.15577 5
  endloop
 endfacet
 facet normal -0 0 1
  outer loop
   vertex -0.80374 1.26649 5
   vertex -0.956136 1.15577 5
   vertex -0.956136 -1.15577 5
  endloop
 endfacet
 facet normal 0 0 1
  outer loop
   vertex -0.956136 -1.15577 5
   vertex -0.956136 1.15577 5
   vertex -1.09345 -1.02682 5
  endloop
 endfacet
 facet normal 0 0 1
  outer loop
   vertex -1.09345 -1.02682 5
   vertex -0.956136 1.15577 5
   vertex -1.21353 -0.881678 5
  endloop
 endfacet
 facet normal -0 0 1
  outer loop
   vertex -0.956136 1.15577 5
   vertex -1.09345 1.02682 5
   vertex -1.21353 -0.881678 5
  endloop
 endfacet
 facet normal -0 0 1
  outer loop
   vertex -1.09345 1.02682 5
   vertex -1.21353 0.881678 5
   vertex -1.21353 -0.881678 5
  endloop
 endfacet
 facet normal 0 0 1
  outer loop
   vertex -1.21353 -0.881678 5
   vertex -1.21353 0.881678 5
   vertex -1.31446 -0.722631 5
  endloop
 endfacet
 facet normal 0 0 1
  outer loop
   vertex -1.31446 -0.722631 5
   vertex -1.21353 0.881678 5
   vertex -1.39466 -0.552187 5
  endloop
 endfacet
 facet normal 0 0 1
  outer loop
   vertex -1.39466 -0.552187 5
   vertex -1.21353 0.881678 5
   vertex -1.45287 -0.373035 5
  endloop
 endfacet
 facet normal -0 0 1
  outer loop
   vertex -1.21353 0.881678 5
   vertex -1.31446 0.722631 5
   vertex -1.45287 -0.373035 5
  endloop
 endfacet
 facet normal -0 0 1
  outer loop
   vertex -1.31446 0.722631 5
   vertex -1.39466 0.552187 5
   vertex -1.45287 -0.373035 5
  endloop
 endfacet
 facet normal -0 0 1
  outer loop
   vertex -1.39466 0.552187 5
   vertex -1.45287 0.373035 5
   vertex -1.45287 -0.373035 5
  endloop
 endfacet
 facet normal 0 0 1
  outer loop
   vertex -1.45287 -0.373035 5
   vertex -1.45287 0.373035 5
   vertex -1.48817 -0.188 5
  endloop
 endfacet
 facet normal 0 0 1
  outer loop
   vertex -1.48817 -0.188 5
   vertex -1.45287 0.373035 5
   vertex -1.5 -6.27786e-16 5
  endloop
 endfacet
 facet normal 0 0 1
  outer loop
   vertex -1.48817 0.188 5
   vertex -1.5 -6.27786e-16 5
   vertex -1.45287 0.373035 5
  endloop
 endfacet
endsolid
